<svg xmlns="http://www.w3.org/2000/svg" width="900" height="340" style="background:#fff;font-family:sans-serif"><title>Overflow event zoom</title><line x1="60" y1="186.0" x2="880" y2="186.0" stroke="#e0e0e0" stroke-width="1.2" /><text x="55" y="189.970560182385" font-size="9" text-anchor="end" fill="#777" font-family="sans-serif" font-weight="normal">1000</text><line x1="60" y1="127.8" x2="880" y2="127.8" stroke="#e0e0e0" stroke-width="1.2" /><text x="55" y="131.8120899827851" font-size="9" text-anchor="end" fill="#777" font-family="sans-serif" font-weight="normal">2000</text><line x1="60" y1="69.7" x2="880" y2="69.7" stroke="#e0e0e0" stroke-width="1.2" /><text x="55" y="73.65361978318523" font-size="9" text-anchor="end" fill="#777" font-family="sans-serif" font-weight="normal">3000</text><line x1="60" y1="69.7" x2="880" y2="69.7" stroke="#e55" stroke-width="1.2" stroke-dasharray="5,4"/><text x="876" y="64.65361978318523" font-size="9" text-anchor="end" fill="#e55" font-family="sans-serif" font-weight="normal">3000 mm</text><polyline points="60.0,170.4 62.8,171.0 65.7,171.5 68.5,171.9 71.4,172.2 74.2,172.7 77.1,173.3 79.9,173.5 82.8,174.1 85.6,174.7 88.5,175.5 91.3,176.0 94.2,176.2 97.0,176.8 99.9,177.2 102.7,178.0 105.6,178.5 108.4,179.0 111.2,179.6 114.1,180.1 116.9,180.4 119.8,180.9 122.6,181.5 125.5,182.1 128.3,182.6 131.2,182.9 134.0,183.3 136.9,183.6 139.7,184.1 142.6,184.5 145.4,185.1 148.3,185.4 151.1,185.6 154.0,186.1 156.8,186.4 159.7,186.6 162.5,186.3 165.3,186.1 168.2,186.0 171.0,186.3 173.9,186.7 176.7,186.8 179.6,187.1 182.4,187.3 185.3,187.6 188.1,187.9 191.0,188.1 193.8,188.1 196.7,188.4 199.5,188.6 202.4,188.9 205.2,189.1 208.1,189.1 210.9,189.4 213.8,189.5 216.6,189.7 219.4,189.9 222.3,190.1 225.1,190.1 228.0,190.1 230.8,190.3 233.7,190.3 236.5,190.4 239.4,190.7 242.2,190.7 245.1,191.0 247.9,191.2 250.8,191.5 253.6,191.5 256.5,191.5 259.3,191.9 262.2,191.9 265.0,192.3 267.8,192.4 270.7,192.8 273.5,192.9 276.4,193.0 279.2,193.1 282.1,193.1 284.9,193.5 287.8,193.6 290.6,193.8 293.5,194.0 296.3,194.4 299.2,194.3 302.0,194.4 304.9,194.6 307.7,194.7 310.6,194.9 313.4,195.1 316.2,195.4 319.1,195.7 321.9,195.9 324.8,196.2 327.6,196.3 330.5,196.7 333.3,197.0 336.2,197.2 339.0,197.4 341.9,197.7 344.7,197.8 347.6,198.2 350.4,198.4 353.3,198.6 356.1,198.8 359.0,199.2 361.8,199.5 364.7,199.5 367.5,199.9 370.3,199.5 373.2,199.7 376.0,200.0 378.9,199.9 381.7,199.2 384.6,197.2 387.4,193.3 390.3,188.1 393.1,182.5 396.0,175.5 398.8,166.1 401.7,155.0 404.5,143.5 407.4,132.8 410.2,124.6 413.1,117.9 415.9,111.7 418.8,106.3 421.6,100.6 424.4,95.6 427.3,90.7 430.1,86.6 433.0,82.6 435.8,79.1 438.7,74.5 441.5,70.0 444.4,64.9 447.2,60.0 450.1,54.7 452.9,49.0 455.8,44.9 458.6,42.1 461.5,40.6 464.3,40.0 467.2,40.2 470.0,40.8 472.8,41.9 475.7,42.9 478.5,43.6 481.4,44.6 484.2,45.4 487.1,45.9 489.9,46.2 492.8,46.4 495.6,46.5 498.5,46.3 501.3,46.0 504.2,45.6 507.0,45.3 509.9,45.0 512.7,44.8 515.6,45.1 518.4,45.4 521.2,45.5 524.1,45.7 526.9,46.3 529.8,46.9 532.6,47.1 535.5,47.1 538.3,47.3 541.2,47.7 544.0,47.9 546.9,48.5 549.7,49.1 552.6,49.8 555.4,50.6 558.3,51.3 561.1,51.7 564.0,52.5 566.8,53.9 569.7,55.6 572.5,56.9 575.3,58.0 578.2,59.3 581.0,60.3 583.9,61.6 586.7,62.6 589.6,63.7 592.4,64.9 595.3,66.0 598.1,67.2 601.0,68.3 603.8,69.4 606.7,70.4 609.5,71.2 612.4,72.1 615.2,72.8 618.1,74.0 620.9,74.8 623.8,75.3 626.6,76.0 629.4,77.1 632.3,77.8 635.1,78.6 638.0,79.2 640.8,79.8 643.7,80.7 646.5,81.6 649.4,82.4 652.2,82.9 655.1,83.7 657.9,84.6 660.8,85.5 663.6,86.4 666.5,87.4 669.3,88.3 672.2,89.2 675.0,90.9 677.8,92.5 680.7,93.9 683.5,95.3 686.4,96.7 689.2,98.1 692.1,99.3 694.9,100.2 697.8,101.5 700.6,102.6 703.5,103.7 706.3,104.8 709.2,105.6 712.0,106.8 714.9,107.6 717.7,108.5 720.6,109.4 723.4,110.4 726.2,111.6 729.1,112.8 731.9,114.1 734.8,115.3 737.6,116.6 740.5,118.0 743.3,119.2 746.2,120.7 749.0,121.9 751.9,123.6 754.7,125.1 757.6,126.4 760.4,127.9 763.3,129.3 766.1,130.9 769.0,132.5 771.8,134.1 774.7,135.6 777.5,137.1 780.3,138.7 783.2,140.2 786.0,141.6 788.9,143.3 791.7,144.6 794.6,145.5 797.4,146.5 800.3,146.9 803.1,147.5 806.0,148.3 808.8,149.1 811.7,150.0 814.5,150.9 817.4,151.6 820.2,152.4 823.1,153.3 825.9,154.2 828.8,154.8 831.6,155.7 834.4,156.9 837.3,157.6 840.1,158.5 843.0,159.5 845.8,160.2 848.7,161.1 851.5,161.9 854.4,162.9 857.2,164.0 860.1,164.9 862.9,165.9 865.8,166.8 868.6,167.9 871.5,168.9 874.3,169.8 877.2,170.5 880.0,171.3" fill="none" stroke="#4682b4" stroke-width="2" opacity="1.0"/><rect x="287.8" y="280.0" width="1.0" height="20.0" fill="#ff8c00" opacity="0.8"/><rect x="406.4" y="280.0" width="1.0" height="20.0" fill="#4169e1" opacity="0.8"/><rect x="407.4" y="280.0" width="1.0" height="20.0" fill="#ff8c00" opacity="0.8"/><rect x="409.2" y="220.0" width="1.0" height="80.0" fill="#4169e1" opacity="0.8"/><rect x="410.2" y="260.0" width="1.0" height="40.0" fill="#ff8c00" opacity="0.8"/><rect x="412.1" y="220.0" width="1.0" height="80.0" fill="#4169e1" opacity="0.8"/><rect x="413.1" y="220.0" width="1.0" height="80.0" fill="#ff8c00" opacity="0.8"/><rect x="414.9" y="220.0" width="1.0" height="80.0" fill="#4169e1" opacity="0.8"/><rect x="415.9" y="240.0" width="1.0" height="60.0" fill="#ff8c00" opacity="0.8"/><rect x="417.8" y="260.0" width="1.0" height="40.0" fill="#4169e1" opacity="0.8"/><rect x="418.8" y="240.0" width="1.0" height="60.0" fill="#ff8c00" opacity="0.8"/><rect x="420.6" y="260.0" width="1.0" height="40.0" fill="#4169e1" opacity="0.8"/><rect x="421.6" y="220.0" width="1.0" height="80.0" fill="#ff8c00" opacity="0.8"/><rect x="423.5" y="240.0" width="1.0" height="60.0" fill="#4169e1" opacity="0.8"/><rect x="424.4" y="240.0" width="1.0" height="60.0" fill="#ff8c00" opacity="0.8"/><rect x="426.3" y="260.0" width="1.0" height="40.0" fill="#4169e1" opacity="0.8"/><rect x="427.3" y="260.0" width="1.0" height="40.0" fill="#ff8c00" opacity="0.8"/><rect x="429.1" y="240.0" width="1.0" height="60.0" fill="#4169e1" opacity="0.8"/><rect x="430.1" y="260.0" width="1.0" height="40.0" fill="#ff8c00" opacity="0.8"/><rect x="432.0" y="280.0" width="1.0" height="20.0" fill="#4169e1" opacity="0.8"/><rect x="433.0" y="240.0" width="1.0" height="60.0" fill="#ff8c00" opacity="0.8"/><rect x="434.8" y="240.0" width="1.0" height="60.0" fill="#4169e1" opacity="0.8"/><rect x="435.8" y="220.0" width="1.0" height="80.0" fill="#ff8c00" opacity="0.8"/><rect x="437.7" y="240.0" width="1.0" height="60.0" fill="#4169e1" opacity="0.8"/><rect x="438.7" y="240.0" width="1.0" height="60.0" fill="#ff8c00" opacity="0.8"/><rect x="440.5" y="220.0" width="1.0" height="80.0" fill="#4169e1" opacity="0.8"/><rect x="441.5" y="240.0" width="1.0" height="60.0" fill="#ff8c00" opacity="0.8"/><rect x="443.4" y="240.0" width="1.0" height="60.0" fill="#4169e1" opacity="0.8"/><rect x="444.4" y="260.0" width="1.0" height="40.0" fill="#ff8c00" opacity="0.8"/><rect x="446.2" y="240.0" width="1.0" height="60.0" fill="#4169e1" opacity="0.8"/><rect x="447.2" y="220.0" width="1.0" height="80.0" fill="#ff8c00" opacity="0.8"/><rect x="449.1" y="260.0" width="1.0" height="40.0" fill="#4169e1" opacity="0.8"/><rect x="450.1" y="260.0" width="1.0" height="40.0" fill="#ff8c00" opacity="0.8"/><rect x="451.9" y="240.0" width="1.0" height="60.0" fill="#4169e1" opacity="0.8"/><rect x="452.9" y="220.0" width="1.0" height="80.0" fill="#ff8c00" opacity="0.8"/><rect x="454.8" y="220.0" width="1.0" height="80.0" fill="#4169e1" opacity="0.8"/><rect x="455.8" y="260.0" width="1.0" height="40.0" fill="#ff8c00" opacity="0.8"/><rect x="457.6" y="280.0" width="1.0" height="20.0" fill="#4169e1" opacity="0.8"/><rect x="458.6" y="240.0" width="1.0" height="60.0" fill="#ff8c00" opacity="0.8"/><rect x="460.5" y="260.0" width="1.0" height="40.0" fill="#4169e1" opacity="0.8"/><rect x="461.5" y="260.0" width="1.0" height="40.0" fill="#ff8c00" opacity="0.8"/><rect x="463.3" y="240.0" width="1.0" height="60.0" fill="#4169e1" opacity="0.8"/><rect x="464.3" y="240.0" width="1.0" height="60.0" fill="#ff8c00" opacity="0.8"/><rect x="466.2" y="220.0" width="1.0" height="80.0" fill="#4169e1" opacity="0.8"/><rect x="467.2" y="240.0" width="1.0" height="60.0" fill="#ff8c00" opacity="0.8"/><rect x="469.0" y="220.0" width="1.0" height="80.0" fill="#4169e1" opacity="0.8"/><rect x="470.0" y="220.0" width="1.0" height="80.0" fill="#ff8c00" opacity="0.8"/><rect x="471.9" y="220.0" width="1.0" height="80.0" fill="#4169e1" opacity="0.8"/><rect x="472.8" y="220.0" width="1.0" height="80.0" fill="#ff8c00" opacity="0.8"/><rect x="474.7" y="240.0" width="1.0" height="60.0" fill="#4169e1" opacity="0.8"/><rect x="475.7" y="220.0" width="1.0" height="80.0" fill="#ff8c00" opacity="0.8"/><rect x="477.5" y="260.0" width="1.0" height="40.0" fill="#4169e1" opacity="0.8"/><rect x="478.5" y="220.0" width="1.0" height="80.0" fill="#ff8c00" opacity="0.8"/><rect x="480.4" y="220.0" width="1.0" height="80.0" fill="#4169e1" opacity="0.8"/><rect x="481.4" y="240.0" width="1.0" height="60.0" fill="#ff8c00" opacity="0.8"/><rect x="483.2" y="240.0" width="1.0" height="60.0" fill="#4169e1" opacity="0.8"/><rect x="484.2" y="260.0" width="1.0" height="40.0" fill="#ff8c00" opacity="0.8"/><rect x="486.1" y="280.0" width="1.0" height="20.0" fill="#4169e1" opacity="0.8"/><rect x="488.9" y="260.0" width="1.0" height="40.0" fill="#4169e1" opacity="0.8"/><rect x="489.9" y="280.0" width="1.0" height="20.0" fill="#ff8c00" opacity="0.8"/><rect x="491.8" y="280.0" width="1.0" height="20.0" fill="#4169e1" opacity="0.8"/><rect x="492.8" y="280.0" width="1.0" height="20.0" fill="#ff8c00" opacity="0.8"/><rect x="494.6" y="280.0" width="1.0" height="20.0" fill="#4169e1" opacity="0.8"/><rect x="495.6" y="280.0" width="1.0" height="20.0" fill="#ff8c00" opacity="0.8"/><rect x="497.5" y="280.0" width="1.0" height="20.0" fill="#4169e1" opacity="0.8"/><rect x="498.5" y="280.0" width="1.0" height="20.0" fill="#ff8c00" opacity="0.8"/><rect x="501.3" y="280.0" width="1.0" height="20.0" fill="#ff8c00" opacity="0.8"/><rect x="503.2" y="280.0" width="1.0" height="20.0" fill="#4169e1" opacity="0.8"/><rect x="504.2" y="280.0" width="1.0" height="20.0" fill="#ff8c00" opacity="0.8"/><rect x="507.0" y="280.0" width="1.0" height="20.0" fill="#ff8c00" opacity="0.8"/><rect x="508.9" y="280.0" width="1.0" height="20.0" fill="#4169e1" opacity="0.8"/><rect x="509.9" y="280.0" width="1.0" height="20.0" fill="#ff8c00" opacity="0.8"/><rect x="511.7" y="280.0" width="1.0" height="20.0" fill="#4169e1" opacity="0.8"/><rect x="512.7" y="280.0" width="1.0" height="20.0" fill="#ff8c00" opacity="0.8"/><rect x="514.6" y="260.0" width="1.0" height="40.0" fill="#4169e1" opacity="0.8"/><rect x="515.6" y="260.0" width="1.0" height="40.0" fill="#ff8c00" opacity="0.8"/><rect x="517.4" y="280.0" width="1.0" height="20.0" fill="#4169e1" opacity="0.8"/><rect x="518.4" y="280.0" width="1.0" height="20.0" fill="#ff8c00" opacity="0.8"/><rect x="520.3" y="280.0" width="1.0" height="20.0" fill="#4169e1" opacity="0.8"/><rect x="521.2" y="260.0" width="1.0" height="40.0" fill="#ff8c00" opacity="0.8"/><rect x="523.1" y="260.0" width="1.0" height="40.0" fill="#4169e1" opacity="0.8"/><rect x="524.1" y="260.0" width="1.0" height="40.0" fill="#ff8c00" opacity="0.8"/><rect x="526.0" y="240.0" width="1.0" height="60.0" fill="#4169e1" opacity="0.8"/><rect x="526.9" y="260.0" width="1.0" height="40.0" fill="#ff8c00" opacity="0.8"/><rect x="528.8" y="260.0" width="1.0" height="40.0" fill="#4169e1" opacity="0.8"/><rect x="529.8" y="260.0" width="1.0" height="40.0" fill="#ff8c00" opacity="0.8"/><rect x="531.6" y="260.0" width="1.0" height="40.0" fill="#4169e1" opacity="0.8"/><rect x="532.6" y="260.0" width="1.0" height="40.0" fill="#ff8c00" opacity="0.8"/><rect x="534.5" y="280.0" width="1.0" height="20.0" fill="#4169e1" opacity="0.8"/><rect x="535.5" y="280.0" width="1.0" height="20.0" fill="#ff8c00" opacity="0.8"/><rect x="537.3" y="280.0" width="1.0" height="20.0" fill="#4169e1" opacity="0.8"/><rect x="538.3" y="260.0" width="1.0" height="40.0" fill="#ff8c00" opacity="0.8"/><rect x="540.2" y="280.0" width="1.0" height="20.0" fill="#4169e1" opacity="0.8"/><rect x="541.2" y="280.0" width="1.0" height="20.0" fill="#ff8c00" opacity="0.8"/><rect x="544.0" y="280.0" width="1.0" height="20.0" fill="#ff8c00" opacity="0.8"/><rect x="545.9" y="280.0" width="1.0" height="20.0" fill="#4169e1" opacity="0.8"/><rect x="546.9" y="260.0" width="1.0" height="40.0" fill="#ff8c00" opacity="0.8"/><rect x="548.7" y="280.0" width="1.0" height="20.0" fill="#4169e1" opacity="0.8"/><rect x="549.7" y="260.0" width="1.0" height="40.0" fill="#ff8c00" opacity="0.8"/><rect x="551.6" y="280.0" width="1.0" height="20.0" fill="#4169e1" opacity="0.8"/><rect x="552.6" y="260.0" width="1.0" height="40.0" fill="#ff8c00" opacity="0.8"/><rect x="554.4" y="280.0" width="1.0" height="20.0" fill="#4169e1" opacity="0.8"/><rect x="555.4" y="280.0" width="1.0" height="20.0" fill="#ff8c00" opacity="0.8"/><rect x="558.3" y="260.0" width="1.0" height="40.0" fill="#ff8c00" opacity="0.8"/><rect x="560.1" y="280.0" width="1.0" height="20.0" fill="#4169e1" opacity="0.8"/><rect x="561.1" y="280.0" width="1.0" height="20.0" fill="#ff8c00" opacity="0.8"/><rect x="564.0" y="280.0" width="1.0" height="20.0" fill="#ff8c00" opacity="0.8"/><rect x="566.8" y="280.0" width="1.0" height="20.0" fill="#ff8c00" opacity="0.8"/><rect x="568.7" y="260.0" width="1.0" height="40.0" fill="#4169e1" opacity="0.8"/><rect x="569.7" y="280.0" width="1.0" height="20.0" fill="#ff8c00" opacity="0.8"/><rect x="574.4" y="280.0" width="1.0" height="20.0" fill="#4169e1" opacity="0.8"/><rect x="575.3" y="280.0" width="1.0" height="20.0" fill="#ff8c00" opacity="0.8"/><rect x="577.2" y="280.0" width="1.0" height="20.0" fill="#4169e1" opacity="0.8"/><rect x="580.0" y="280.0" width="1.0" height="20.0" fill="#4169e1" opacity="0.8"/><rect x="581.0" y="280.0" width="1.0" height="20.0" fill="#ff8c00" opacity="0.8"/><rect x="583.9" y="280.0" width="1.0" height="20.0" fill="#ff8c00" opacity="0.8"/><rect x="585.7" y="280.0" width="1.0" height="20.0" fill="#4169e1" opacity="0.8"/><rect x="598.1" y="280.0" width="1.0" height="20.0" fill="#ff8c00" opacity="0.8"/><rect x="614.2" y="280.0" width="1.0" height="20.0" fill="#4169e1" opacity="0.8"/><rect x="620.9" y="280.0" width="1.0" height="20.0" fill="#ff8c00" opacity="0.8"/><rect x="625.6" y="280.0" width="1.0" height="20.0" fill="#4169e1" opacity="0.8"/><rect x="629.4" y="280.0" width="1.0" height="20.0" fill="#ff8c00" opacity="0.8"/><rect x="638.0" y="280.0" width="1.0" height="20.0" fill="#ff8c00" opacity="0.8"/><rect x="646.5" y="280.0" width="1.0" height="20.0" fill="#ff8c00" opacity="0.8"/><rect x="654.1" y="280.0" width="1.0" height="20.0" fill="#4169e1" opacity="0.8"/><rect x="657.9" y="280.0" width="1.0" height="20.0" fill="#ff8c00" opacity="0.8"/><rect x="663.6" y="280.0" width="1.0" height="20.0" fill="#ff8c00" opacity="0.8"/><rect x="693.9" y="280.0" width="1.0" height="20.0" fill="#4169e1" opacity="0.8"/><rect x="699.6" y="280.0" width="1.0" height="20.0" fill="#4169e1" opacity="0.8"/><rect x="700.6" y="280.0" width="1.0" height="20.0" fill="#ff8c00" opacity="0.8"/><rect x="702.5" y="280.0" width="1.0" height="20.0" fill="#4169e1" opacity="0.8"/><rect x="717.7" y="260.0" width="1.0" height="40.0" fill="#ff8c00" opacity="0.8"/><rect x="719.6" y="280.0" width="1.0" height="20.0" fill="#4169e1" opacity="0.8"/><rect x="720.6" y="280.0" width="1.0" height="20.0" fill="#ff8c00" opacity="0.8"/><rect x="723.4" y="280.0" width="1.0" height="20.0" fill="#ff8c00" opacity="0.8"/><rect x="726.2" y="280.0" width="1.0" height="20.0" fill="#ff8c00" opacity="0.8"/><rect x="731.0" y="280.0" width="1.0" height="20.0" fill="#4169e1" opacity="0.8"/><line x1="60" y1="40" x2="60" y2="200" stroke="#999" stroke-width="1"/><line x1="60" y1="200" x2="880" y2="200" stroke="#999" stroke-width="1"/><line x1="60" y1="220" x2="60" y2="300" stroke="#999" stroke-width="1"/><line x1="60" y1="300" x2="880" y2="300" stroke="#999" stroke-width="1"/><text x="60.0" y="314" font-size="8" text-anchor="middle" fill="#777" font-family="sans-serif" font-weight="normal">12-23 17:15</text><text x="162.5" y="314" font-size="8" text-anchor="middle" fill="#777" font-family="sans-serif" font-weight="normal">12-23 20:15</text><text x="265.0" y="314" font-size="8" text-anchor="middle" fill="#777" font-family="sans-serif" font-weight="normal">12-23 23:15</text><text x="367.5" y="314" font-size="8" text-anchor="middle" fill="#777" font-family="sans-serif" font-weight="normal">12-24 02:15</text><text x="470.0" y="314" font-size="8" text-anchor="middle" fill="#777" font-family="sans-serif" font-weight="normal">12-24 05:15</text><text x="572.5" y="314" font-size="8" text-anchor="middle" fill="#777" font-family="sans-serif" font-weight="normal">12-24 08:15</text><text x="675.0" y="314" font-size="8" text-anchor="middle" fill="#777" font-family="sans-serif" font-weight="normal">12-24 11:15</text><text x="777.5" y="314" font-size="8" text-anchor="middle" fill="#777" font-family="sans-serif" font-weight="normal">12-24 14:15</text><text x="880.0" y="314" font-size="8" text-anchor="middle" fill="#777" font-family="sans-serif" font-weight="normal">12-24 17:15</text><text x="450" y="25" font-size="13" text-anchor="middle" fill="#222" font-family="sans-serif" font-weight="bold">Overflow Event — 2023-12-24 (±12 h)</text><text x="885" y="120" font-size="9" text-anchor="start" fill="#555" font-family="sans-serif" font-weight="normal">Level (mm)</text><text x="885" y="260" font-size="9" text-anchor="start" fill="#555" font-family="sans-serif" font-weight="normal">Rain (mm)</text><rect x="65.0" y="45.0" width="10.0" height="10.0" fill="#4169e1" opacity="0.8"/><text x="78" y="54" font-size="9" text-anchor="start" fill="#333" font-family="sans-serif" font-weight="normal">Avant-Port</text><rect x="140.0" y="45.0" width="10.0" height="10.0" fill="#ff8c00" opacity="0.8"/><text x="153" y="54" font-size="9" text-anchor="start" fill="#333" font-family="sans-serif" font-weight="normal">Flagey</text></svg>