<svg xmlns="http://www.w3.org/2000/svg" width="900" height="240" style="background:#fff;font-family:sans-serif"><title>Rainfall overview</title><rect x="62.3" y="120.8" width="8.6" height="74.2" fill="#4169e1" opacity="0.8"/><rect x="71.9" y="111.5" width="8.6" height="83.5" fill="#ff8c00" opacity="0.8"/><rect x="85.1" y="108.1" width="8.6" height="86.9" fill="#4169e1" opacity="0.8"/><rect x="94.7" y="98.6" width="8.6" height="96.4" fill="#ff8c00" opacity="0.8"/><rect x="107.8" y="193.8" width="8.6" height="1.2" fill="#4169e1" opacity="0.8"/><rect x="117.4" y="193.4" width="8.6" height="1.6" fill="#ff8c00" opacity="0.8"/><rect x="130.6" y="123.3" width="8.6" height="71.7" fill="#4169e1" opacity="0.8"/><rect x="140.2" y="152.3" width="8.6" height="42.7" fill="#ff8c00" opacity="0.8"/><rect x="153.4" y="145.7" width="8.6" height="49.3" fill="#4169e1" opacity="0.8"/><rect x="163.0" y="135.3" width="8.6" height="59.7" fill="#ff8c00" opacity="0.8"/><rect x="176.2" y="127.7" width="8.6" height="67.3" fill="#4169e1" opacity="0.8"/><rect x="185.8" y="93.5" width="8.6" height="101.5" fill="#ff8c00" opacity="0.8"/><rect x="198.9" y="187.2" width="8.6" height="7.8" fill="#4169e1" opacity="0.8"/><rect x="208.6" y="190.9" width="8.6" height="4.1" fill="#ff8c00" opacity="0.8"/><rect x="221.7" y="187.3" width="8.6" height="7.7" fill="#4169e1" opacity="0.8"/><rect x="231.3" y="184.8" width="8.6" height="10.2" fill="#ff8c00" opacity="0.8"/><rect x="244.5" y="69.0" width="8.6" height="126.0" fill="#4169e1" opacity="0.8"/><rect x="254.1" y="78.5" width="8.6" height="116.5" fill="#ff8c00" opacity="0.8"/><rect x="267.3" y="147.7" width="8.6" height="47.3" fill="#4169e1" opacity="0.8"/><rect x="276.9" y="144.4" width="8.6" height="50.6" fill="#ff8c00" opacity="0.8"/><rect x="290.1" y="116.2" width="8.6" height="78.8" fill="#4169e1" opacity="0.8"/><rect x="299.7" y="117.5" width="8.6" height="77.5" fill="#ff8c00" opacity="0.8"/><rect x="312.8" y="76.1" width="8.6" height="118.9" fill="#4169e1" opacity="0.8"/><rect x="322.4" y="71.7" width="8.6" height="123.3" fill="#ff8c00" opacity="0.8"/><rect x="335.6" y="82.8" width="8.6" height="112.2" fill="#4169e1" opacity="0.8"/><rect x="345.2" y="92.1" width="8.6" height="102.9" fill="#ff8c00" opacity="0.8"/><rect x="358.4" y="184.9" width="8.6" height="10.1" fill="#4169e1" opacity="0.8"/><rect x="368.0" y="182.1" width="8.6" height="12.9" fill="#ff8c00" opacity="0.8"/><rect x="381.2" y="71.6" width="8.6" height="123.4" fill="#4169e1" opacity="0.8"/><rect x="390.8" y="65.5" width="8.6" height="129.5" fill="#ff8c00" opacity="0.8"/><rect x="403.9" y="127.0" width="8.6" height="68.0" fill="#4169e1" opacity="0.8"/><rect x="413.6" y="119.7" width="8.6" height="75.3" fill="#ff8c00" opacity="0.8"/><rect x="426.7" y="147.0" width="8.6" height="48.0" fill="#4169e1" opacity="0.8"/><rect x="436.3" y="147.9" width="8.6" height="47.1" fill="#ff8c00" opacity="0.8"/><rect x="449.5" y="132.7" width="8.6" height="62.3" fill="#4169e1" opacity="0.8"/><rect x="459.1" y="132.8" width="8.6" height="62.2" fill="#ff8c00" opacity="0.8"/><rect x="472.3" y="66.2" width="8.6" height="128.8" fill="#4169e1" opacity="0.8"/><rect x="481.9" y="50.6" width="8.6" height="144.4" fill="#ff8c00" opacity="0.8"/><rect x="495.1" y="63.3" width="8.6" height="131.7" fill="#4169e1" opacity="0.8"/><rect x="504.7" y="64.8" width="8.6" height="130.2" fill="#ff8c00" opacity="0.8"/><rect x="517.8" y="99.1" width="8.6" height="95.9" fill="#4169e1" opacity="0.8"/><rect x="527.4" y="102.8" width="8.6" height="92.2" fill="#ff8c00" opacity="0.8"/><rect x="540.6" y="82.9" width="8.6" height="112.1" fill="#4169e1" opacity="0.8"/><rect x="550.2" y="97.7" width="8.6" height="97.3" fill="#ff8c00" opacity="0.8"/><rect x="563.4" y="40.0" width="8.6" height="155.0" fill="#4169e1" opacity="0.8"/><rect x="573.0" y="41.8" width="8.6" height="153.2" fill="#ff8c00" opacity="0.8"/><rect x="586.2" y="83.1" width="8.6" height="111.9" fill="#4169e1" opacity="0.8"/><rect x="595.8" y="74.1" width="8.6" height="120.9" fill="#ff8c00" opacity="0.8"/><rect x="608.9" y="102.2" width="8.6" height="92.8" fill="#4169e1" opacity="0.8"/><rect x="618.6" y="89.8" width="8.6" height="105.2" fill="#ff8c00" opacity="0.8"/><rect x="631.7" y="76.9" width="8.6" height="118.1" fill="#4169e1" opacity="0.8"/><rect x="641.3" y="68.1" width="8.6" height="126.9" fill="#ff8c00" opacity="0.8"/><rect x="654.5" y="116.6" width="8.6" height="78.4" fill="#4169e1" opacity="0.8"/><rect x="664.1" y="123.1" width="8.6" height="71.9" fill="#ff8c00" opacity="0.8"/><rect x="677.3" y="112.5" width="8.6" height="82.5" fill="#4169e1" opacity="0.8"/><rect x="686.9" y="125.8" width="8.6" height="69.2" fill="#ff8c00" opacity="0.8"/><rect x="700.1" y="53.8" width="8.6" height="141.2" fill="#4169e1" opacity="0.8"/><rect x="709.7" y="74.8" width="8.6" height="120.2" fill="#ff8c00" opacity="0.8"/><rect x="722.8" y="121.9" width="8.6" height="73.1" fill="#4169e1" opacity="0.8"/><rect x="732.4" y="115.6" width="8.6" height="79.4" fill="#ff8c00" opacity="0.8"/><rect x="745.6" y="70.5" width="8.6" height="124.5" fill="#4169e1" opacity="0.8"/><rect x="755.2" y="77.8" width="8.6" height="117.2" fill="#ff8c00" opacity="0.8"/><rect x="768.4" y="75.1" width="8.6" height="119.9" fill="#4169e1" opacity="0.8"/><rect x="778.0" y="76.1" width="8.6" height="118.9" fill="#ff8c00" opacity="0.8"/><rect x="791.2" y="76.7" width="8.6" height="118.3" fill="#4169e1" opacity="0.8"/><rect x="800.8" y="78.9" width="8.6" height="116.1" fill="#ff8c00" opacity="0.8"/><rect x="813.9" y="109.4" width="8.6" height="85.6" fill="#4169e1" opacity="0.8"/><rect x="823.6" y="120.1" width="8.6" height="74.9" fill="#ff8c00" opacity="0.8"/><rect x="836.7" y="105.0" width="8.6" height="90.0" fill="#4169e1" opacity="0.8"/><rect x="846.3" y="94.8" width="8.6" height="100.2" fill="#ff8c00" opacity="0.8"/><rect x="859.5" y="109.4" width="8.6" height="85.6" fill="#4169e1" opacity="0.8"/><rect x="869.1" y="114.2" width="8.6" height="80.8" fill="#ff8c00" opacity="0.8"/><line x1="60" y1="136.6" x2="880" y2="136.6" stroke="#e0e0e0" stroke-width="1.2" /><text x="55" y="140.55354449472097" font-size="9" text-anchor="end" fill="#777" font-family="sans-serif" font-weight="normal">50</text><line x1="60" y1="78.1" x2="880" y2="78.1" stroke="#e0e0e0" stroke-width="1.2" /><text x="55" y="82.10708898944193" font-size="9" text-anchor="end" fill="#777" font-family="sans-serif" font-weight="normal">100</text><line x1="60" y1="40" x2="60" y2="195" stroke="#999" stroke-width="1"/><line x1="60" y1="195" x2="880" y2="195" stroke="#999" stroke-width="1"/><text x="185.2777777777778" y="213" font-size="10" text-anchor="middle" fill="#555" font-family="sans-serif" font-weight="normal">2022</text><text x="458.61111111111114" y="213" font-size="10" text-anchor="middle" fill="#555" font-family="sans-serif" font-weight="normal">2023</text><text x="731.9444444444445" y="213" font-size="10" text-anchor="middle" fill="#555" font-family="sans-serif" font-weight="normal">2024</text><rect x="740.0" y="12.0" width="12.0" height="12.0" fill="#4169e1" opacity="0.8"/><text x="756" y="23" font-size="10" text-anchor="start" fill="#333" font-family="sans-serif" font-weight="normal">Avant-Port (P01)</text><rect x="740.0" y="28.0" width="12.0" height="12.0" fill="#ff8c00" opacity="0.8"/><text x="756" y="39" font-size="10" text-anchor="start" fill="#333" font-family="sans-serif" font-weight="normal">Flagey (P14)</text><text x="15" y="117" font-size="10" text-anchor="middle" fill="#555" font-family="sans-serif" transform="rotate(-90,15,117)">mm/month</text><text x="450" y="25" font-size="13" text-anchor="middle" fill="#222" font-family="sans-serif" font-weight="bold">Monthly Rainfall — Avant-Port & Flagey (2022–2024)</text></svg>