<svg xmlns="http://www.w3.org/2000/svg" width="560" height="260" style="background:#fff;font-family:sans-serif"><title>Sewer level distribution</title><rect x="60.0" y="215.0" width="7.5" height="0.0" fill="#4682b4" opacity="0.8"/><rect x="68.0" y="214.3" width="7.5" height="0.7" fill="#4682b4" opacity="0.8"/><rect x="76.0" y="213.3" width="7.5" height="1.7" fill="#4682b4" opacity="0.8"/><rect x="84.0" y="203.4" width="7.5" height="11.6" fill="#4682b4" opacity="0.8"/><rect x="92.0" y="189.4" width="7.5" height="25.6" fill="#4682b4" opacity="0.8"/><rect x="100.0" y="135.2" width="7.5" height="79.8" fill="#4682b4" opacity="0.8"/><rect x="108.0" y="140.9" width="7.5" height="74.1" fill="#4682b4" opacity="0.8"/><rect x="116.0" y="148.9" width="7.5" height="66.1" fill="#4682b4" opacity="0.8"/><rect x="124.0" y="140.1" width="7.5" height="74.9" fill="#4682b4" opacity="0.8"/><rect x="132.0" y="106.4" width="7.5" height="108.6" fill="#4682b4" opacity="0.8"/><rect x="140.0" y="76.7" width="7.5" height="138.3" fill="#4682b4" opacity="0.8"/><rect x="148.0" y="40.0" width="7.5" height="175.0" fill="#4682b4" opacity="0.8"/><rect x="156.0" y="115.2" width="7.5" height="99.8" fill="#4682b4" opacity="0.8"/><rect x="164.0" y="152.4" width="7.5" height="62.6" fill="#4682b4" opacity="0.8"/><rect x="172.0" y="178.4" width="7.5" height="36.6" fill="#4682b4" opacity="0.8"/><rect x="180.0" y="192.8" width="7.5" height="22.2" fill="#4682b4" opacity="0.8"/><rect x="188.0" y="198.6" width="7.5" height="16.4" fill="#4682b4" opacity="0.8"/><rect x="196.0" y="200.8" width="7.5" height="14.2" fill="#4682b4" opacity="0.8"/><rect x="204.0" y="202.6" width="7.5" height="12.4" fill="#4682b4" opacity="0.8"/><rect x="212.0" y="203.5" width="7.5" height="11.5" fill="#4682b4" opacity="0.8"/><rect x="220.0" y="204.2" width="7.5" height="10.8" fill="#4682b4" opacity="0.8"/><rect x="228.0" y="205.2" width="7.5" height="9.8" fill="#4682b4" opacity="0.8"/><rect x="236.0" y="206.4" width="7.5" height="8.6" fill="#4682b4" opacity="0.8"/><rect x="244.0" y="206.8" width="7.5" height="8.2" fill="#4682b4" opacity="0.8"/><rect x="252.0" y="206.5" width="7.5" height="8.5" fill="#4682b4" opacity="0.8"/><rect x="260.0" y="207.9" width="7.5" height="7.1" fill="#4682b4" opacity="0.8"/><rect x="268.0" y="208.3" width="7.5" height="6.7" fill="#4682b4" opacity="0.8"/><rect x="276.0" y="208.3" width="7.5" height="6.7" fill="#4682b4" opacity="0.8"/><rect x="284.0" y="208.9" width="7.5" height="6.1" fill="#4682b4" opacity="0.8"/><rect x="292.0" y="208.9" width="7.5" height="6.1" fill="#4682b4" opacity="0.8"/><rect x="300.0" y="208.9" width="7.5" height="6.1" fill="#4682b4" opacity="0.8"/><rect x="308.0" y="209.3" width="7.5" height="5.7" fill="#4682b4" opacity="0.8"/><rect x="316.0" y="209.9" width="7.5" height="5.1" fill="#4682b4" opacity="0.8"/><rect x="324.0" y="210.4" width="7.5" height="4.6" fill="#4682b4" opacity="0.8"/><rect x="332.0" y="211.2" width="7.5" height="3.8" fill="#4682b4" opacity="0.8"/><rect x="340.0" y="211.7" width="7.5" height="3.3" fill="#4682b4" opacity="0.8"/><rect x="348.0" y="212.0" width="7.5" height="3.0" fill="#4682b4" opacity="0.8"/><rect x="356.0" y="212.2" width="7.5" height="2.8" fill="#4682b4" opacity="0.8"/><rect x="364.0" y="212.0" width="7.5" height="3.0" fill="#4682b4" opacity="0.8"/><rect x="372.0" y="212.0" width="7.5" height="3.0" fill="#4682b4" opacity="0.8"/><rect x="380.0" y="211.7" width="7.5" height="3.3" fill="#4682b4" opacity="0.8"/><rect x="388.0" y="212.1" width="7.5" height="2.9" fill="#4682b4" opacity="0.8"/><rect x="396.0" y="211.8" width="7.5" height="3.2" fill="#4682b4" opacity="0.8"/><rect x="404.0" y="212.1" width="7.5" height="2.9" fill="#4682b4" opacity="0.8"/><rect x="412.0" y="212.1" width="7.5" height="2.9" fill="#4682b4" opacity="0.8"/><rect x="420.0" y="212.2" width="7.5" height="2.8" fill="#4682b4" opacity="0.8"/><rect x="428.0" y="211.8" width="7.5" height="3.2" fill="#4682b4" opacity="0.8"/><rect x="436.0" y="212.2" width="7.5" height="2.8" fill="#4682b4" opacity="0.8"/><rect x="444.0" y="212.5" width="7.5" height="2.5" fill="#4682b4" opacity="0.8"/><rect x="452.0" y="212.6" width="7.5" height="2.4" fill="#4682b4" opacity="0.8"/><rect x="460.0" y="212.6" width="7.5" height="2.4" fill="#4682b4" opacity="0.8"/><rect x="468.0" y="212.8" width="7.5" height="2.2" fill="#4682b4" opacity="0.8"/><rect x="476.0" y="213.0" width="7.5" height="2.0" fill="#4682b4" opacity="0.8"/><rect x="484.0" y="213.4" width="7.5" height="1.6" fill="#4682b4" opacity="0.8"/><rect x="492.0" y="213.5" width="7.5" height="1.5" fill="#4682b4" opacity="0.8"/><rect x="500.0" y="213.7" width="7.5" height="1.3" fill="#4682b4" opacity="0.8"/><rect x="508.0" y="214.1" width="7.5" height="0.9" fill="#4682b4" opacity="0.8"/><rect x="516.0" y="213.2" width="7.5" height="1.8" fill="#4682b4" opacity="0.8"/><rect x="524.0" y="214.4" width="7.5" height="0.6" fill="#4682b4" opacity="0.8"/><rect x="532.0" y="214.8" width="7.5" height="0.2" fill="#4682b4" opacity="0.8"/><line x1="433.8" y1="40" x2="433.8" y2="215" stroke="#e55" stroke-width="1.5" stroke-dasharray="5,4"/><text x="436.8222101492971" y="54" font-size="9" text-anchor="start" fill="#e55" font-family="sans-serif" font-weight="normal">3000 mm</text><text x="70.7469408336777" y="230" font-size="9" text-anchor="middle" fill="#777" font-family="sans-serif" font-weight="normal">500</text><text x="143.36199469680156" y="230" font-size="9" text-anchor="middle" fill="#777" font-family="sans-serif" font-weight="normal">1000</text><text x="215.97704855992546" y="230" font-size="9" text-anchor="middle" fill="#777" font-family="sans-serif" font-weight="normal">1500</text><text x="288.5921024230493" y="230" font-size="9" text-anchor="middle" fill="#777" font-family="sans-serif" font-weight="normal">2000</text><text x="361.20715628617324" y="230" font-size="9" text-anchor="middle" fill="#777" font-family="sans-serif" font-weight="normal">2500</text><text x="433.8222101492971" y="230" font-size="9" text-anchor="middle" fill="#777" font-family="sans-serif" font-weight="normal">3000</text><text x="506.437264012421" y="230" font-size="9" text-anchor="middle" fill="#777" font-family="sans-serif" font-weight="normal">3500</text><line x1="60" y1="40" x2="60" y2="215" stroke="#999" stroke-width="1"/><line x1="60" y1="215" x2="540" y2="215" stroke="#999" stroke-width="1"/><text x="280" y="255" font-size="10" text-anchor="middle" fill="#555" font-family="sans-serif" font-weight="normal">Water level (mm)</text><text x="280" y="25" font-size="13" text-anchor="middle" fill="#222" font-family="sans-serif" font-weight="bold">Sewer Level Distribution</text></svg>