<svg xmlns="http://www.w3.org/2000/svg" width="900" height="280" style="background:#fff;font-family:sans-serif"><title>Sewer level overview</title><line x1="60" y1="255.1" x2="880" y2="255.1" stroke="#e0e0e0" stroke-width="1.2" /><text x="55" y="259.11707495598995" font-size="9" text-anchor="end" fill="#777" font-family="sans-serif" font-weight="normal">500</text><line x1="60" y1="217.2" x2="880" y2="217.2" stroke="#e0e0e0" stroke-width="1.2" /><text x="55" y="221.21732746038523" font-size="9" text-anchor="end" fill="#777" font-family="sans-serif" font-weight="normal">1000</text><line x1="60" y1="179.3" x2="880" y2="179.3" stroke="#e0e0e0" stroke-width="1.2" /><text x="55" y="183.3175799647805" font-size="9" text-anchor="end" fill="#777" font-family="sans-serif" font-weight="normal">1500</text><line x1="60" y1="141.4" x2="880" y2="141.4" stroke="#e0e0e0" stroke-width="1.2" /><text x="55" y="145.41783246917578" font-size="9" text-anchor="end" fill="#777" font-family="sans-serif" font-weight="normal">2000</text><line x1="60" y1="103.5" x2="880" y2="103.5" stroke="#e0e0e0" stroke-width="1.2" /><text x="55" y="107.51808497357104" font-size="9" text-anchor="end" fill="#777" font-family="sans-serif" font-weight="normal">2500</text><line x1="60" y1="65.6" x2="880" y2="65.6" stroke="#e0e0e0" stroke-width="1.2" /><text x="55" y="69.6183374779663" font-size="9" text-anchor="end" fill="#777" font-family="sans-serif" font-weight="normal">3000</text><line x1="60" y1="27.7" x2="880" y2="27.7" stroke="#e0e0e0" stroke-width="1.2" /><text x="55" y="31.718589982361593" font-size="9" text-anchor="end" fill="#777" font-family="sans-serif" font-weight="normal">3500</text><line x1="60" y1="65.6" x2="880" y2="65.6" stroke="#e55" stroke-width="1.2" stroke-dasharray="5,4"/><text x="876" y="60.61833747796631" font-size="9" text-anchor="end" fill="#e55" font-family="sans-serif" font-weight="normal">Overflow 3000 mm</text><polyline points="60.0,225.4 60.8,167.9 61.5,115.6 62.3,128.7 63.0,180.5 63.8,207.5 64.5,207.2 65.3,174.0 66.0,153.2 66.8,198.1 67.5,217.3 68.3,219.8 69.0,220.2 69.8,220.3 70.5,220.5 71.3,217.7 72.0,220.6 72.8,220.7 73.5,218.8 74.3,218.6 75.0,219.7 75.8,221.0 76.6,220.7 77.3,220.4 78.1,220.9 78.8,221.2 79.6,209.3 80.3,220.7 81.1,220.8 81.8,220.8 82.6,203.8 83.3,211.3 84.1,200.0 84.8,220.4 85.6,211.0 86.3,220.6 87.1,106.4 87.8,189.3 88.6,216.5 89.3,219.3 90.1,185.0 90.8,218.0 91.6,220.5 92.3,219.6 93.1,213.8 93.9,193.0 94.6,165.6 95.4,198.7 96.1,208.2 96.9,211.4 97.6,186.6 98.4,158.6 99.1,214.2 99.9,219.5 100.6,201.7 101.4,219.4 102.1,221.5 102.9,221.2 103.6,221.7 104.4,221.4 105.1,221.0 105.9,219.7 106.6,221.3 107.4,222.2 108.1,221.2 108.9,220.9 109.7,220.9 110.4,221.0 111.2,221.2 111.9,221.1 112.7,222.1 113.4,221.3 114.2,220.9 114.9,220.9 115.7,206.4 116.4,192.3 117.2,186.8 117.9,181.8 118.7,133.0 119.4,156.2 120.2,153.4 120.9,143.5 121.7,175.6 122.4,171.5 123.2,147.3 123.9,160.3 124.7,174.8 125.4,195.3 126.2,172.6 127.0,163.3 127.7,186.4 128.5,222.3 129.2,223.5 130.0,201.4 130.7,192.9 131.5,213.8 132.2,190.1 133.0,219.0 133.7,220.2 134.5,223.4 135.2,222.7 136.0,223.2 136.7,209.9 137.5,223.2 138.2,223.1 139.0,212.0 139.7,220.6 140.5,219.6 141.2,217.3 142.0,220.9 142.8,221.2 143.5,221.6 144.3,221.9 145.0,222.0 145.8,171.2 146.5,220.1 147.3,221.0 148.0,220.8 148.8,220.8 149.5,221.0 150.3,220.1 151.0,219.4 151.8,220.2 152.5,220.0 153.3,219.2 154.0,219.6 154.8,220.2 155.5,220.6 156.3,219.7 157.0,219.1 157.8,218.8 158.6,218.9 159.3,219.2 160.1,220.4 160.8,219.6 161.6,219.2 162.3,218.4 163.1,210.6 163.8,145.0 164.6,202.8 165.3,221.6 166.1,221.1 166.8,166.6 167.6,201.6 168.3,220.9 169.1,222.0 169.8,218.1 170.6,221.6 171.3,204.8 172.1,220.4 172.8,218.7 173.6,220.0 174.3,219.8 175.1,217.2 175.9,225.5 176.6,206.6 177.4,220.1 178.1,221.1 178.9,220.7 179.6,219.1 180.4,219.7 181.1,219.7 181.9,219.4 182.6,219.4 183.4,220.1 184.1,213.4 184.9,220.4 185.6,220.0 186.4,219.7 187.1,214.7 187.9,146.8 188.6,210.6 189.4,220.9 190.1,200.2 190.9,220.9 191.7,220.8 192.4,176.3 193.2,218.8 193.9,222.9 194.7,223.0 195.4,221.8 196.2,222.0 196.9,222.1 197.7,222.2 198.4,222.4 199.2,224.1 199.9,224.8 200.7,223.3 201.4,222.5 202.2,222.9 202.9,223.0 203.7,224.1 204.4,225.6 205.2,225.8 205.9,223.9 206.7,224.3 207.4,222.7 208.2,218.0 209.0,226.0 209.7,226.8 210.5,226.4 211.2,225.0 212.0,225.6 212.7,225.7 213.5,225.7 214.2,226.0 215.0,226.8 215.7,226.3 216.5,225.5 217.2,225.4 218.0,225.5 218.7,214.9 219.5,224.7 220.2,228.2 221.0,227.5 221.7,226.4 222.5,225.6 223.2,225.4 224.0,225.5 224.8,225.7 225.5,226.9 226.3,227.1 227.0,226.3 227.8,224.7 228.5,220.5 229.3,224.9 230.0,213.5 230.8,226.4 231.5,226.9 232.3,224.5 233.0,223.8 233.8,223.5 234.5,222.9 235.3,223.8 236.0,224.6 236.8,223.6 237.5,222.1 238.3,221.4 239.0,221.9 239.8,222.0 240.6,222.2 241.3,217.6 242.1,222.8 242.8,203.0 243.6,195.5 244.3,217.2 245.1,169.2 245.8,206.6 246.6,215.0 247.3,222.1 248.1,221.3 248.8,209.7 249.6,176.5 250.3,220.3 251.1,180.1 251.8,151.6 252.6,209.4 253.3,216.4 254.1,221.7 254.8,221.4 255.6,221.1 256.3,221.9 257.1,180.1 257.9,219.5 258.6,161.6 259.4,143.9 260.1,209.3 260.9,221.2 261.6,217.3 262.4,160.9 263.1,184.2 263.9,221.0 264.6,220.9 265.4,221.1 266.1,221.2 266.9,221.5 267.6,222.2 268.4,221.5 269.1,221.5 269.9,220.9 270.6,221.0 271.4,216.0 272.1,217.4 272.9,219.9 273.7,212.9 274.4,207.4 275.2,221.7 275.9,221.6 276.7,214.4 277.4,221.4 278.2,222.8 278.9,202.1 279.7,180.3 280.4,206.5 281.2,220.0 281.9,221.0 282.7,221.5 283.4,223.0 284.2,224.1 284.9,223.9 285.7,224.5 286.4,224.6 287.2,214.6 287.9,221.5 288.7,224.0 289.4,206.2 290.2,221.0 291.0,222.0 291.7,219.2 292.5,222.5 293.2,223.3 294.0,223.4 294.7,221.6 295.5,221.2 296.2,205.0 297.0,192.0 297.7,170.9 298.5,212.8 299.2,174.0 300.0,199.6 300.7,202.2 301.5,216.2 302.2,189.3 303.0,220.3 303.7,184.4 304.5,221.7 305.2,204.9 306.0,203.5 306.8,221.7 307.5,221.6 308.3,221.4 309.0,221.1 309.8,221.6 310.5,220.5 311.3,200.6 312.0,217.4 312.8,214.3 313.5,216.6 314.3,220.3 315.0,222.3 315.8,220.9 316.5,220.6 317.3,220.4 318.0,218.7 318.8,219.3 319.5,222.2 320.3,222.7 321.0,214.2 321.8,193.2 322.6,136.2 323.3,189.7 324.1,157.5 324.8,173.7 325.6,187.9 326.3,138.9 327.1,191.7 327.8,222.0 328.6,214.0 329.3,178.0 330.1,197.7 330.8,186.1 331.6,213.2 332.3,186.8 333.1,220.7 333.8,177.4 334.6,216.5 335.3,216.4 336.1,220.3 336.8,185.6 337.6,208.8 338.3,206.6 339.1,184.1 339.9,109.8 340.6,209.2 341.4,171.7 342.1,193.7 342.9,100.8 343.6,183.9 344.4,217.3 345.1,218.5 345.9,192.0 346.6,216.7 347.4,218.9 348.1,218.6 348.9,218.9 349.6,219.3 350.4,210.8 351.1,217.6 351.9,220.6 352.6,220.7 353.4,217.7 354.1,218.7 354.9,219.6 355.7,219.6 356.4,220.3 357.2,204.7 357.9,216.6 358.7,220.0 359.4,219.8 360.2,219.7 360.9,220.5 361.7,221.7 362.4,221.2 363.2,219.5 363.9,221.5 364.7,218.8 365.4,216.2 366.2,212.1 366.9,217.3 367.7,202.2 368.4,202.3 369.2,210.6 369.9,214.3 370.7,208.3 371.4,211.5 372.2,225.7 373.0,227.7 373.7,228.3 374.5,217.2 375.2,206.6 376.0,226.2 376.7,230.1 377.5,235.0 378.2,231.4 379.0,221.8 379.7,214.6 380.5,136.9 381.2,115.5 382.0,109.9 382.7,119.4 383.5,225.2 384.2,219.6 385.0,215.4 385.7,165.6 386.5,215.3 387.2,227.4 388.0,233.5 388.8,198.1 389.5,211.9 390.3,232.9 391.0,208.5 391.8,229.7 392.5,218.4 393.3,216.2 394.0,210.3 394.8,132.2 395.5,184.7 396.3,135.8 397.0,195.9 397.8,196.5 398.5,140.6 399.3,139.5 400.0,199.9 400.8,224.5 401.5,225.1 402.3,226.2 403.0,183.3 403.8,200.6 404.6,228.4 405.3,229.3 406.1,201.9 406.8,224.0 407.6,175.6 408.3,193.7 409.1,226.3 409.8,225.5 410.6,227.8 411.3,227.2 412.1,226.7 412.8,225.6 413.6,223.9 414.3,206.2 415.1,207.0 415.8,198.6 416.6,203.8 417.3,222.7 418.1,225.0 418.8,225.8 419.6,201.2 420.3,226.9 421.1,224.3 421.9,225.0 422.6,226.7 423.4,227.0 424.1,226.3 424.9,227.1 425.6,228.9 426.4,217.0 427.1,228.2 427.9,159.4 428.6,213.6 429.4,198.1 430.1,158.2 430.9,223.9 431.6,227.0 432.4,224.4 433.1,226.5 433.9,227.2 434.6,228.1 435.4,227.6 436.1,227.8 436.9,227.1 437.7,227.1 438.4,226.7 439.2,226.8 439.9,226.8 440.7,227.2 441.4,228.2 442.2,228.6 442.9,228.0 443.7,227.2 444.4,226.7 445.2,223.6 445.9,223.7 446.7,228.0 447.4,227.5 448.2,226.3 448.9,226.2 449.7,225.3 450.4,224.4 451.2,224.5 451.9,226.8 452.7,227.0 453.4,225.9 454.2,225.7 455.0,226.0 455.7,225.6 456.5,215.2 457.2,195.8 458.0,195.7 458.7,199.7 459.5,170.4 460.2,209.4 461.0,133.8 461.7,216.1 462.5,227.9 463.2,227.3 464.0,227.1 464.7,227.0 465.5,226.6 466.2,225.1 467.0,227.4 467.7,221.2 468.5,229.0 469.2,227.4 470.0,226.0 470.8,204.6 471.5,229.1 472.3,229.2 473.0,205.5 473.8,221.6 474.5,230.5 475.3,227.5 476.0,210.1 476.8,229.6 477.5,231.8 478.3,193.8 479.0,228.3 479.8,227.5 480.5,231.2 481.3,224.1 482.0,213.5 482.8,232.1 483.5,233.4 484.3,181.4 485.0,111.8 485.8,216.5 486.6,230.1 487.3,145.4 488.1,211.6 488.8,217.0 489.6,200.9 490.3,173.0 491.1,199.1 491.8,166.3 492.6,186.7 493.3,227.8 494.1,195.6 494.8,139.8 495.6,227.5 496.3,194.1 497.1,209.3 497.8,229.6 498.6,229.7 499.3,164.0 500.1,227.8 500.8,228.1 501.6,228.6 502.3,225.5 503.1,227.5 503.9,227.6 504.6,228.6 505.4,228.6 506.1,227.4 506.9,227.3 507.6,226.9 508.4,211.1 509.1,132.3 509.9,212.6 510.6,196.4 511.4,222.0 512.1,224.8 512.9,164.9 513.6,199.4 514.4,122.7 515.1,213.4 515.9,219.4 516.6,219.0 517.4,219.2 518.1,219.2 518.9,219.2 519.7,219.1 520.4,220.1 521.2,219.7 521.9,219.3 522.7,218.2 523.4,218.5 524.2,203.2 524.9,219.8 525.7,220.3 526.4,211.9 527.2,198.5 527.9,219.7 528.7,219.4 529.4,148.5 530.2,187.1 530.9,219.4 531.7,219.8 532.4,219.5 533.2,219.2 533.9,217.6 534.7,214.8 535.4,211.8 536.2,220.0 537.0,218.8 537.7,218.4 538.5,218.6 539.2,219.0 540.0,218.9 540.7,218.8 541.5,219.6 542.2,218.8 543.0,218.7 543.7,218.7 544.5,218.3 545.2,193.5 546.0,203.4 546.7,181.6 547.5,220.9 548.2,219.2 549.0,221.6 549.7,188.7 550.5,212.9 551.2,163.6 552.0,207.9 552.8,214.3 553.5,195.3 554.3,202.7 555.0,169.0 555.8,205.7 556.5,174.7 557.3,219.3 558.0,213.8 558.8,181.0 559.5,206.8 560.3,180.1 561.0,220.2 561.8,224.0 562.5,207.5 563.3,209.3 564.0,212.7 564.8,224.0 565.5,188.0 566.3,141.0 567.0,172.9 567.8,188.3 568.6,219.9 569.3,155.6 570.1,128.7 570.8,204.1 571.6,202.6 572.3,198.1 573.1,165.2 573.8,201.1 574.6,160.1 575.3,198.8 576.1,219.6 576.8,221.8 577.6,194.7 578.3,194.2 579.1,196.6 579.8,87.9 580.6,213.7 581.3,201.6 582.1,219.4 582.8,219.4 583.6,220.0 584.3,219.6 585.1,196.5 585.9,155.8 586.6,217.7 587.4,211.9 588.1,212.4 588.9,190.4 589.6,195.9 590.4,212.5 591.1,213.5 591.9,191.5 592.6,220.7 593.4,219.3 594.1,223.9 594.9,222.7 595.6,224.3 596.4,160.8 597.1,202.9 597.9,179.0 598.6,206.4 599.4,219.5 600.1,146.5 600.9,101.4 601.7,191.8 602.4,207.7 603.2,209.1 603.9,137.9 604.7,220.5 605.4,210.6 606.2,135.0 606.9,40.0 607.7,73.0 608.4,150.9 609.2,190.9 609.9,189.3 610.7,216.6 611.4,219.1 612.2,219.7 612.9,221.6 613.7,221.5 614.4,222.1 615.2,223.6 615.9,220.9 616.7,220.3 617.4,222.3 618.2,205.9 619.0,173.0 619.7,198.9 620.5,202.0 621.2,190.5 622.0,174.2 622.7,203.3 623.5,196.6 624.2,216.7 625.0,187.8 625.7,222.3 626.5,221.4 627.2,220.5 628.0,220.8 628.7,221.0 629.5,175.7 630.2,221.5 631.0,221.0 631.7,208.9 632.5,219.8 633.2,221.5 634.0,93.9 634.8,136.6 635.5,162.4 636.3,183.9 637.0,180.8 637.8,193.3 638.5,207.4 639.3,170.0 640.0,203.4 640.8,208.4 641.5,218.7 642.3,183.9 643.0,187.2 643.8,216.2 644.5,181.5 645.3,160.1 646.0,186.8 646.8,186.2 647.5,204.7 648.3,98.9 649.0,209.5 649.8,219.3 650.6,192.6 651.3,198.8 652.1,167.8 652.8,218.6 653.6,219.3 654.3,219.1 655.1,218.8 655.8,218.3 656.6,204.4 657.3,214.9 658.1,214.9 658.8,85.5 659.6,144.9 660.3,151.2 661.1,196.9 661.8,198.4 662.6,211.9 663.3,211.1 664.1,216.1 664.8,217.7 665.6,217.2 666.3,218.0 667.1,188.6 667.9,147.8 668.6,156.0 669.4,201.3 670.1,216.6 670.9,213.5 671.6,196.5 672.4,213.4 673.1,183.5 673.9,216.8 674.6,217.5 675.4,201.8 676.1,179.5 676.9,151.3 677.6,206.8 678.4,220.0 679.1,212.1 679.9,204.1 680.6,156.5 681.4,210.3 682.1,215.5 682.9,194.9 683.7,216.3 684.4,214.9 685.2,165.1 685.9,145.5 686.7,181.8 687.4,192.2 688.2,151.9 688.9,210.3 689.7,191.0 690.4,179.6 691.2,204.5 691.9,190.9 692.7,184.7 693.4,154.8 694.2,195.9 694.9,212.0 695.7,196.2 696.4,199.4 697.2,155.3 697.9,192.5 698.7,115.6 699.4,177.1 700.2,206.8 701.0,158.0 701.7,202.3 702.5,212.4 703.2,211.7 704.0,211.4 704.7,198.6 705.5,182.7 706.2,216.5 707.0,211.0 707.7,166.5 708.5,173.1 709.2,176.8 710.0,175.1 710.7,214.1 711.5,211.6 712.2,193.7 713.0,208.9 713.7,195.3 714.5,188.5 715.2,174.9 716.0,169.9 716.8,196.8 717.5,198.5 718.3,159.2 719.0,213.0 719.8,198.4 720.5,208.2 721.3,216.4 722.0,215.8 722.8,215.6 723.5,213.9 724.3,215.9 725.0,216.6 725.8,217.8 726.5,217.1 727.3,173.6 728.0,207.1 728.8,212.9 729.5,216.2 730.3,200.7 731.0,184.6 731.8,162.5 732.6,171.3 733.3,130.3 734.1,188.9 734.8,212.8 735.6,167.2 736.3,216.3 737.1,217.0 737.8,215.8 738.6,215.3 739.3,214.6 740.1,215.5 740.8,216.5 741.6,198.3 742.3,201.7 743.1,217.0 743.8,201.2 744.6,183.4 745.3,213.5 746.1,216.6 746.8,218.6 747.6,219.4 748.3,217.4 749.1,147.2 749.9,146.3 750.6,212.8 751.4,104.3 752.1,203.3 752.9,215.3 753.6,214.7 754.4,206.1 755.1,215.3 755.9,215.0 756.6,216.0 757.4,216.7 758.1,217.7 758.9,216.2 759.6,202.7 760.4,216.6 761.1,215.7 761.9,212.8 762.6,218.0 763.4,218.3 764.1,216.6 764.9,214.6 765.7,167.0 766.4,115.4 767.2,212.5 767.9,214.9 768.7,173.0 769.4,220.5 770.2,221.0 770.9,203.6 771.7,221.1 772.4,222.2 773.2,223.8 773.9,223.7 774.7,220.0 775.4,219.3 776.2,123.3 776.9,216.8 777.7,179.5 778.4,181.6 779.2,219.7 779.9,218.5 780.7,171.2 781.4,203.4 782.2,229.1 783.0,228.7 783.7,172.3 784.5,205.2 785.2,215.3 786.0,216.3 786.7,215.7 787.5,215.8 788.2,207.0 789.0,187.6 789.7,214.8 790.5,214.3 791.2,171.7 792.0,205.4 792.7,212.4 793.5,208.1 794.2,189.4 795.0,165.9 795.7,124.5 796.5,175.8 797.2,143.8 798.0,154.2 798.8,184.1 799.5,214.6 800.3,214.4 801.0,213.5 801.8,213.7 802.5,213.1 803.3,213.6 804.0,213.8 804.8,215.3 805.5,214.6 806.3,211.9 807.0,212.8 807.8,200.5 808.5,138.7 809.3,173.7 810.0,206.6 810.8,213.6 811.5,206.1 812.3,209.6 813.0,212.7 813.8,212.8 814.6,213.6 815.3,214.4 816.1,213.2 816.8,201.1 817.6,203.6 818.3,147.8 819.1,123.2 819.8,210.2 820.6,213.1 821.3,212.0 822.1,150.1 822.8,208.3 823.6,211.7 824.3,211.5 825.1,213.1 825.8,209.8 826.6,213.5 827.3,134.8 828.1,173.0 828.8,211.4 829.6,211.4 830.3,212.1 831.1,214.1 831.9,214.8 832.6,213.9 833.4,209.4 834.1,211.8 834.9,212.8 835.6,214.6 836.4,215.2 837.1,213.3 837.9,212.3 838.6,212.5 839.4,212.4 840.1,210.1 840.9,209.5 841.6,213.7 842.4,214.3 843.1,208.7 843.9,189.2 844.6,211.3 845.4,207.9 846.1,212.4 846.9,214.0 847.7,188.6 848.4,182.1 849.2,69.5 849.9,135.0 850.7,131.9 851.4,200.8 852.2,204.9 852.9,170.3 853.7,156.3 854.4,187.8 855.2,184.9 855.9,208.2 856.7,210.6 857.4,212.0 858.2,211.3 858.9,209.8 859.7,190.1 860.4,208.6 861.2,162.7 861.9,161.2 862.7,133.1 863.4,110.7 864.2,173.6 865.0,205.7 865.7,209.2 866.5,209.3 867.2,209.3 868.0,210.3 868.7,209.7 869.5,201.9 870.2,210.1 871.0,210.6 871.7,138.4 872.5,205.0 873.2,181.3 874.0,170.7 874.7,113.0 875.5,197.0 876.2,212.6 877.0,215.0 877.7,213.8 878.5,214.6 879.2,215.1 880.0,213.3" fill="none" stroke="#4682b4" stroke-width="1.5" opacity="1.0"/><line x1="60" y1="40" x2="60" y2="235" stroke="#999" stroke-width="1"/><line x1="60" y1="235" x2="880" y2="235" stroke="#999" stroke-width="1"/><line x1="60.0" y1="235" x2="60.0" y2="240" stroke="#999" stroke-width="1"/><text x="60.0" y="251" font-size="9" text-anchor="middle" fill="#555" font-family="sans-serif" font-weight="normal">2022-01</text><line x1="127.5" y1="235" x2="127.5" y2="240" stroke="#999" stroke-width="1"/><text x="127.45886654478976" y="251" font-size="9" text-anchor="middle" fill="#555" font-family="sans-serif" font-weight="normal">2022-04</text><line x1="195.7" y1="235" x2="195.7" y2="240" stroke="#999" stroke-width="1"/><text x="195.6672760511883" y="251" font-size="9" text-anchor="middle" fill="#555" font-family="sans-serif" font-weight="normal">2022-07</text><line x1="264.6" y1="235" x2="264.6" y2="240" stroke="#999" stroke-width="1"/><text x="264.6252285191956" y="251" font-size="9" text-anchor="middle" fill="#555" font-family="sans-serif" font-weight="normal">2022-10</text><line x1="333.6" y1="235" x2="333.6" y2="240" stroke="#999" stroke-width="1"/><text x="333.5831809872029" y="251" font-size="9" text-anchor="middle" fill="#555" font-family="sans-serif" font-weight="normal">2023-01</text><line x1="401.0" y1="235" x2="401.0" y2="240" stroke="#999" stroke-width="1"/><text x="401.0420475319927" y="251" font-size="9" text-anchor="middle" fill="#555" font-family="sans-serif" font-weight="normal">2023-04</text><line x1="469.3" y1="235" x2="469.3" y2="240" stroke="#999" stroke-width="1"/><text x="469.25045703839123" y="251" font-size="9" text-anchor="middle" fill="#555" font-family="sans-serif" font-weight="normal">2023-07</text><line x1="538.2" y1="235" x2="538.2" y2="240" stroke="#999" stroke-width="1"/><text x="538.2084095063985" y="251" font-size="9" text-anchor="middle" fill="#555" font-family="sans-serif" font-weight="normal">2023-10</text><line x1="607.2" y1="235" x2="607.2" y2="240" stroke="#999" stroke-width="1"/><text x="607.1663619744058" y="251" font-size="9" text-anchor="middle" fill="#555" font-family="sans-serif" font-weight="normal">2024-01</text><line x1="675.4" y1="235" x2="675.4" y2="240" stroke="#999" stroke-width="1"/><text x="675.3747714808044" y="251" font-size="9" text-anchor="middle" fill="#555" font-family="sans-serif" font-weight="normal">2024-04</text><line x1="743.6" y1="235" x2="743.6" y2="240" stroke="#999" stroke-width="1"/><text x="743.5831809872029" y="251" font-size="9" text-anchor="middle" fill="#555" font-family="sans-serif" font-weight="normal">2024-07</text><line x1="812.5" y1="235" x2="812.5" y2="240" stroke="#999" stroke-width="1"/><text x="812.5411334552102" y="251" font-size="9" text-anchor="middle" fill="#555" font-family="sans-serif" font-weight="normal">2024-10</text><text x="470" y="275" font-size="10" text-anchor="middle" fill="#555" font-family="sans-serif" font-weight="normal">Date</text><text x="15" y="137" font-size="10" text-anchor="middle" fill="#555" font-family="sans-serif" font-weight="normal">Level (mm)</text><text x="15" y="137" font-size="10" text-anchor="middle" fill="#555" font-family="sans-serif" transform="rotate(-90,15,137)">Level (mm)</text><text x="450" y="25" font-size="13" text-anchor="middle" fill="#222" font-family="sans-serif" font-weight="bold">DO08 Sewer Water Level — 2022 to 2024 (daily mean)</text></svg>